<svg xmlns="http://www.w3.org/2000/svg"  viewBox="0 0 64 64" width="128px" height="128px"><path fill="#cda1a7" d="M51,25h8a2,2,0,0,1,2,2V53a6,6,0,0,1-6,6h0a6,6,0,0,1-6-6V27a2,2,0,0,1,2-2Z"/><path fill="#faefde" d="M52,59H11a6,6,0,0,1-6-6V8A3,3,0,0,1,8,5H46a3,3,0,0,1,3,3V56Z"/><rect width="44" height="4" x="5" y="5" fill="#fff7f0" rx="2" ry="2"/><path fill="#efd8be" d="M49,49H5v4a6,6,0,0,0,6,6H52l-3-3Z"/><path fill="#eb9697" d="M33 14h6a1 1 0 0 0 0-2H33a1 1 0 0 0 0 2zM13 14H29a1 1 0 0 0 0-2H13a1 1 0 0 0 0 2zM23 16H13a1 1 0 0 0 0 2H23a1 1 0 0 0 0-2z"/><path fill="#8d6c9f" d="M23 24H13a1 1 0 0 0 0 2H23a1 1 0 0 0 0-2zM23 28H13a1 1 0 0 0 0 2H23a1 1 0 0 0 0-2zM23 32H13a1 1 0 0 0 0 2H23a1 1 0 0 0 0-2zM23 36H13a1 1 0 0 0 0 2H23a1 1 0 0 0 0-2zM23 40H13a1 1 0 0 0 0 2H23a1 1 0 0 0 0-2zM39 24H29a1 1 0 0 0 0 2H39a1 1 0 0 0 0-2zM39 28H29a1 1 0 0 0 0 2H39a1 1 0 0 0 0-2zM39 32H29a1 1 0 0 0 0 2H39a1 1 0 0 0 0-2zM40 37a1 1 0 0 0-1-1H29a1 1 0 0 0 0 2H39A1 1 0 0 0 40 37z"/><path fill="#eb9697" d="M40,17a1,1,0,0,0-1-1H27a1,1,0,0,0,0,2H39A1,1,0,0,0,40,17Z"/><path fill="#8d6c9f" d="M45,48H41a1,1,0,0,0,0,2h4a1,1,0,0,0,0-2Z"/><path fill="#8d6c9f" d="M58,24H50V7a3,3,0,0,0-3-3H7A3,3,0,0,0,4,7V53a7,7,0,0,0,7,7H55a7,7,0,0,0,7-7V28A4,4,0,0,0,58,24ZM11,58a5,5,0,0,1-5-5V50H37a1,1,0,0,0,0-2H6V7A1,1,0,0,1,7,6H47a1,1,0,0,1,1,1V53a7,7,0,0,0,2,5Zm49-5a5,5,0,0,1-5,5,4.84,4.84,0,0,1-5-5V26h4.56A4,4,0,0,0,54,28V45a1,1,0,0,0,2,0V28a2,2,0,0,1,4,0Z"/><path fill="#8d6c9f" d="M10 52a1 1 0 0 0-1 1v2a1 1 0 0 0 2 0V53A1 1 0 0 0 10 52zM15 52a1 1 0 0 0-1 1v2a1 1 0 0 0 2 0V53A1 1 0 0 0 15 52zM20 52a1 1 0 0 0-1 1v2a1 1 0 0 0 2 0V53A1 1 0 0 0 20 52zM25 52a1 1 0 0 0-1 1v2a1 1 0 0 0 2 0V53A1 1 0 0 0 25 52zM30 52a1 1 0 0 0-1 1v2a1 1 0 0 0 2 0V53A1 1 0 0 0 30 52zM35 52a1 1 0 0 0-1 1v2a1 1 0 0 0 2 0V53A1 1 0 0 0 35 52zM40 52a1 1 0 0 0-1 1v2a1 1 0 0 0 2 0V53A1 1 0 0 0 40 52zM45 52a1 1 0 0 0-1 1v2a1 1 0 0 0 2 0V53A1 1 0 0 0 45 52z"/></svg>