<svg xmlns="http://www.w3.org/2000/svg"  viewBox="0 0 64 64" width="128px" height="128px"><path fill="#efd8be" d="M53,9H16a2,2,0,0,0-2,2V53H11a2,2,0,0,0-2,2v2a2,2,0,0,0,2,2H53a2,2,0,0,0,2-2V11A2,2,0,0,0,53,9Z"/><rect width="41" height="48" x="10" y="5" fill="#cda1a7" rx="2" ry="2"/><path fill="#bf949b" d="M12,5h3a0,0,0,0,1,0,0V53a0,0,0,0,1,0,0H9a0,0,0,0,1,0,0V8A3,3,0,0,1,12,5Z"/><path fill="#ed7899" d="M27.42,42.87l-4.84-3.46a1,1,0,0,0-1.16,0l-4.84,3.46A1,1,0,0,1,15,42.06V4a1,1,0,0,1,1-1H28a1,1,0,0,1,1,1V42.06A1,1,0,0,1,27.42,42.87Z"/><path fill="#f283a5" d="M15 3H29V8H15z"/><path fill="#8d6c9f" d="M33 26h4a1 1 0 0 0 0-2H33a1 1 0 0 0 0 2zM33 22H43a1 1 0 0 0 0-2H33a1 1 0 0 0 0 2z"/><path fill="#8d6c9f" d="M53,8H52V7a3,3,0,0,0-3-3H29.82A3,3,0,0,0,27,2H17a3,3,0,0,0-2.82,2H12A4,4,0,0,0,8,8V56a4,4,0,0,0,4,4H53a3,3,0,0,0,3-3V11A3,3,0,0,0,53,8ZM16,5a1,1,0,0,1,1-1H27a1,1,0,0,1,1,1V42.36l-4.82-3.53a2,2,0,0,0-2.36,0L16,42.36ZM10,8a2,2,0,0,1,2-2h2V42.36A2,2,0,0,0,17.18,44L22,40.44,26.82,44A2,2,0,0,0,30,42.36V6H49a1,1,0,0,1,1,1V46a1,1,0,0,0-1,1v2a1,1,0,0,0,1,1v1a1,1,0,0,1-1,1H12a3.94,3.94,0,0,0-2,.63V50a1,1,0,0,0,1-1V47a1,1,0,0,0-1-1ZM54,57a1,1,0,0,1-1,1H12a2,2,0,0,1-2-2,2.26,2.26,0,0,1,2-2H49a3,3,0,0,0,3-3V10h1a1,1,0,0,1,1,1Z"/><path fill="#8d6c9f" d="M33 30h7a1 1 0 0 0 0-2H33a1 1 0 0 0 0 2zM44 49a1 1 0 0 0 2 0V47a1 1 0 0 0-2 0zM40 46a1 1 0 0 0-1 1v2a1 1 0 0 0 2 0V47A1 1 0 0 0 40 46zM35 46a1 1 0 0 0-1 1v2a1 1 0 0 0 2 0V47A1 1 0 0 0 35 46zM30 50a1 1 0 0 0 1-1V47a1 1 0 0 0-2 0v2A1 1 0 0 0 30 50zM25 50a1 1 0 0 0 1-1V47a1 1 0 0 0-2 0v2A1 1 0 0 0 25 50zM20 50a1 1 0 0 0 1-1V47a1 1 0 0 0-2 0v2A1 1 0 0 0 20 50zM15 50a1 1 0 0 0 1-1V47a1 1 0 0 0-2 0v2A1 1 0 0 0 15 50z"/></svg>